<svg width="16" height="10" viewBox="0 0 16 10" fill="none" xmlns="http://www.w3.org/2000/svg">
<path d="M7.60069 3.76253C7.98719 3.76253 8.35168 3.83594 8.69415 3.98274C9.03662 4.12954 9.33505 4.33017 9.58946 4.58463C9.84387 4.83908 10.0469 5.14003 10.1986 5.48746C10.3502 5.83489 10.4236 6.19945 10.4187 6.58114C10.4187 6.97261 10.3453 7.33717 10.1986 7.67482C10.0518 8.01246 9.8512 8.31096 9.5968 8.57031C9.34239 8.82966 9.04151 9.03274 8.69415 9.17954C8.34679 9.32634 7.9823 9.39974 7.60069 9.39974C7.2093 9.39974 6.84481 9.32634 6.50724 9.17954C6.16966 9.03274 5.87122 8.83211 5.61192 8.57765C5.35263 8.32319 5.14959 8.0247 5.00282 7.68216C4.85605 7.33962 4.78266 6.97261 4.78266 6.58114C4.78266 6.19456 4.85605 5.83 5.00282 5.48746C5.14959 5.14492 5.35018 4.84642 5.60459 4.59197C5.85899 4.33751 6.15743 4.13443 6.4999 3.98274C6.84237 3.83104 7.2093 3.75764 7.60069 3.76253ZM7.60069 8.46021C7.85999 8.46021 8.10216 8.41128 8.32722 8.31341C8.55227 8.21554 8.75286 8.08097 8.92898 7.9097C9.10511 7.73843 9.23965 7.54025 9.33261 7.31515C9.42556 7.09005 9.47449 6.84538 9.47938 6.58114C9.47938 6.32179 9.43046 6.07956 9.33261 5.85447C9.23476 5.62937 9.10022 5.42874 8.92898 5.25258C8.75775 5.07642 8.55961 4.94185 8.33455 4.84887C8.1095 4.7559 7.86488 4.70696 7.60069 4.70207C7.34139 4.70207 7.09922 4.751 6.87417 4.84887C6.64912 4.94674 6.44853 5.08131 6.2724 5.25258C6.09627 5.42385 5.96173 5.62203 5.86878 5.84713C5.77582 6.07222 5.7269 6.3169 5.722 6.58114C5.722 6.84049 5.77093 7.08271 5.86878 7.30781C5.96662 7.53291 6.10117 7.73354 6.2724 7.9097C6.44363 8.08586 6.64178 8.22043 6.86683 8.31341C7.09188 8.40638 7.3365 8.45532 7.60069 8.46021ZM7.60069 0.00439453C8.30031 0.00439453 8.99503 0.0900292 9.68486 0.261299C10.3747 0.432568 11.0254 0.689472 11.6369 1.03201C12.2485 1.37455 12.8013 1.79049 13.2955 2.27983C13.7896 2.76917 14.1957 3.3417 14.5137 3.99742C14.7094 4.40357 14.8586 4.82196 14.9613 5.25258C15.0641 5.6832 15.1154 6.12605 15.1154 6.58114H14.1761C14.1761 6.00372 14.088 5.46299 13.9119 4.95897C13.7358 4.45495 13.4936 3.99497 13.1854 3.57903C12.8772 3.16309 12.5102 2.79119 12.0846 2.46333C11.659 2.13548 11.2064 1.859 10.7269 1.6339C10.2475 1.4088 9.73623 1.23753 9.19317 1.12009C8.65012 1.00265 8.11929 0.943929 7.60069 0.943929C7.07231 0.943929 6.54148 1.00265 6.00821 1.12009C5.47494 1.23753 4.96612 1.4088 4.48178 1.6339C3.99743 1.859 3.54243 2.13548 3.11679 2.46333C2.69115 2.79119 2.32667 3.16309 2.02334 3.57903C1.72001 3.99497 1.47538 4.45495 1.28947 4.95897C1.10356 5.46299 1.0155 6.00372 1.02528 6.58114H0.0859375C0.0859375 6.13095 0.137308 5.69054 0.240049 5.25992C0.342789 4.8293 0.492008 4.40846 0.687705 3.99742C1.00082 3.35149 1.40444 2.78141 1.89858 2.28717C2.39271 1.79294 2.948 1.37455 3.56445 1.03201C4.18089 0.689472 4.83158 0.435015 5.51652 0.268639C6.20146 0.102263 6.89618 0.0141814 7.60069 0.00439453Z" fill="#fff"/>
</svg>
