<svg width="42" height="42" viewBox="0 0 42 42" fill="none" xmlns="http://www.w3.org/2000/svg">
<g opacity="0.9">
<path fill-rule="evenodd" clip-rule="evenodd" d="M13.4317 17.6781C14.2207 17.6781 14.9771 17.9995 15.535 18.5717C16.0929 19.1437 16.4062 19.9197 16.4062 20.7288C16.4062 21.538 16.0929 22.3138 15.535 22.8861C14.9771 23.4583 14.2207 23.7796 13.4317 23.7796C12.6429 23.7796 11.8863 23.4583 11.3286 22.8861C10.7707 22.3138 10.4574 21.538 10.4574 20.7288C10.4582 19.9199 10.7719 19.1445 11.3294 18.5725C11.8871 18.0007 12.6431 17.679 13.4317 17.6782L13.4317 17.6781ZM28.549 8.72612C29.3378 8.72612 30.0944 9.04746 30.6523 9.61947C31.2102 10.1917 31.5237 10.9675 31.5237 11.7768C31.5237 12.5858 31.2104 13.3618 30.6525 13.9341C30.0948 14.5063 29.3382 14.8276 28.5494 14.8278C27.7604 14.8278 27.0038 14.5063 26.4461 13.9343C25.8882 13.3621 25.5747 12.586 25.5747 11.777C25.5757 10.9682 25.8894 10.1929 26.4468 9.62095C27.0043 9.04895 27.7603 8.72717 28.5489 8.72617L28.549 8.72612ZM28.549 27.1203C29.3378 27.1201 30.0944 27.4417 30.6523 28.0137C31.2102 28.5859 31.5237 29.3619 31.5237 30.1712C31.5237 30.9802 31.2102 31.7563 30.6523 32.3285C30.0944 32.9007 29.3378 33.222 28.549 33.2218C27.76 33.2218 27.0034 32.9003 26.4457 32.3281C25.8878 31.7558 25.5747 30.9796 25.5747 30.1706C25.5757 29.3617 25.8894 28.5865 26.4468 28.0147C27.0045 27.443 27.7603 27.1212 28.5489 27.1204L28.549 27.1203ZM13.4317 25.5297C14.6532 25.5303 15.826 25.0397 16.6986 24.1631L24.1374 28.5685C23.6082 30.0897 23.858 31.782 24.803 33.0742C25.7477 34.3664 27.2616 35.0864 28.8336 34.9911C30.4058 34.8961 31.8264 33.9985 32.6166 32.6013C33.4067 31.2041 33.4608 29.4936 32.7609 28.0467C32.0609 26.5999 30.6999 25.6096 29.1372 25.4099C27.5743 25.2104 26.0182 25.8281 24.9935 27.0546L17.6849 22.7281C18.1917 21.5942 18.248 20.3026 17.842 19.1269L24.9937 14.8935C26.0118 16.1109 27.5573 16.7235 29.1089 16.5252C30.6606 16.3267 32.0119 15.3435 32.7072 13.907C33.4025 12.4706 33.3495 10.7721 32.5657 9.38429C31.7822 7.99666 30.3721 7.10415 28.8112 7.00812C27.2503 6.91206 25.7465 7.62502 24.8066 8.90669C23.8666 10.1886 23.6158 11.8683 24.1388 13.3796L16.9876 17.6127C15.9512 16.3684 14.368 15.7515 12.7874 15.9759C11.2068 16.2006 9.84688 17.2357 9.17925 18.7221C8.51162 20.2086 8.62861 21.9415 9.48954 23.3194C10.3503 24.6974 11.8364 25.5305 13.4319 25.5297L13.4317 25.5297Z" fill="#FBFBFB"/>
</g>
</svg>
